<?xml version="1.0" standalone="no"?>
<!DOCTYPE svg PUBLIC "-//W3C//DTD SVG 20010904//EN"
 "http://www.w3.org/TR/2001/REC-SVG-20010904/DTD/svg10.dtd">
<svg version="1.0" xmlns="http://www.w3.org/2000/svg"
 width="700.000000pt" height="700.000000pt" viewBox="0 0 700.000000 700.000000"
 preserveAspectRatio="xMidYMid meet">
<metadata>
Created by potrace 1.14, written by Peter Selinger 2001-2017
</metadata>
<g transform="translate(0.000000,700.000000) scale(0.100000,-0.100000)"
fill="#000000" stroke="none">
<path d="M4079 6276 c-139 -56 -182 -114 -243 -326 -20 -69 -47 -163 -61 -210
-13 -47 -50 -173 -80 -280 -31 -107 -58 -202 -60 -210 -10 -34 -48 -170 -65
-230 -22 -78 -80 -283 -115 -400 -36 -124 -131 -456 -170 -595 -67 -242 -114
-406 -125 -437 -12 -37 -54 -185 -76 -268 -8 -30 -30 -109 -50 -175 -19 -66
-50 -176 -70 -245 -111 -391 -197 -693 -214 -750 -67 -230 -91 -315 -113 -395
-14 -49 -53 -187 -87 -305 -34 -118 -64 -222 -65 -230 -2 -8 -10 -37 -19 -64
-23 -74 -16 -179 16 -247 107 -232 403 -279 580 -92 32 33 71 116 92 193 8 30
47 168 86 305 40 138 76 264 80 280 11 43 156 550 175 610 18 61 294 1028 305
1070 4 17 112 395 240 840 128 446 236 824 240 840 8 31 111 392 130 455 6 19
40 136 75 260 55 193 63 235 61 295 -6 185 -149 326 -336 332 -59 2 -87 -3
-131 -21z"/>
<path d="M1513 5069 c-109 -20 -104 -16 -791 -702 -747 -746 -717 -710 -717
-867 1 -157 -32 -117 698 -848 353 -353 662 -656 687 -672 147 -95 348 -60
458 79 90 114 101 270 27 395 -13 22 -251 267 -527 543 l-503 503 516 517
c494 496 517 521 537 578 27 74 34 136 21 195 -40 190 -219 314 -406 279z"/>
<path d="M5363 5069 c-112 -20 -224 -112 -263 -215 -37 -101 -27 -221 27 -308
14 -23 251 -267 526 -543 l502 -503 -516 -517 c-488 -490 -518 -521 -538 -577
-39 -105 -34 -194 15 -294 76 -153 270 -225 439 -162 57 21 88 51 718 679 752
750 722 714 722 871 0 157 30 122 -717 866 -664 661 -694 688 -776 700 -63 9
-99 10 -139 3z"/>
</g>
</svg>
